<svg width="321" height="87" viewBox="0 0 321 87" fill="none" xmlns="http://www.w3.org/2000/svg">
<g clip-path="url(#clip0_0_16)">
<path d="M91 42.9981C91 63.4379 75.5849 80.4223 55.5278 83.4171C55.697 82.5099 55.7445 81.5705 55.6306 80.6185C55.6306 80.6185 55.5107 79.6168 55.354 78.3058C62.4751 77.1193 68.9042 73.9236 74.0001 69.3277C73.6942 69.0789 73.3896 68.7562 73.0892 68.3278C71.7358 66.3964 73.5055 64.48 73.5055 62.791C73.5055 61.1343 70.0905 61.2706 69.9655 60.1734C69.534 56.3734 72.3498 56.3216 73.851 54.8534C75.3522 53.3852 72.3671 50.0473 70.439 50.2627C68.4979 50.4654 63.0339 49.3859 63.5332 45.2973C64.1415 40.3175 57.0461 40.7568 56.0301 38.4325C54.549 35.0445 57.0112 30.8889 60.2227 29.9448C64.7715 28.6076 69.2526 24.9782 68.9026 20.938C68.506 16.3622 66.3884 12.2355 62.9005 9.7841C59.2709 8.34599 55.3571 7.45672 51.2624 7.23233C47.608 7.37368 44.3951 8.16799 44.5417 9.80431C44.9011 13.8143 56.5602 14.8558 54.6037 18.6043C53.5837 20.5583 45.9284 23.3163 47.3581 26.2245C48.288 28.1158 50.5765 26.4949 49.7221 30.1257C49.329 31.7963 47.8312 34.9353 45.5278 35.1379C43.1724 35.353 41.2109 29.2501 34.7996 29.05C31.7687 28.9552 27.4986 33.6751 31.1244 37.0236C33.32 39.0514 37.4401 34.5865 38.6561 38.0743C39.513 40.5321 38.5407 45.6953 42.5401 47.8531C43.998 48.6397 46.233 49.3254 48.4435 50.4239C45.1626 51.0792 41.1312 52.302 36.3708 54.0953L32.36 53.0604C34.039 51.6934 36.7671 50.7311 36.0807 47.7441C35.0725 43.3556 27.2814 45.0107 21.9102 39.7576C20.2624 38.1463 16.7477 32.7957 16.7621 26.3673C14.0848 31.3412 12.561 36.9976 12.561 42.9983C12.561 44.8453 12.705 46.6602 12.9821 48.4328C12.9189 48.4318 12.8564 48.421 12.7934 48.421C11.1018 48.421 9.44288 48.7686 7.90539 49.4257C7.56578 47.3309 7.38452 45.1853 7.38452 42.9984C7.38452 20.4525 26.1396 2.10901 49.192 2.10901C72.2449 2.10872 91 20.4522 91 42.9981ZM59.639 54.916L49.4283 59.5063L49.5867 57.3303L56.2014 54.4099C55.258 54.3439 54.2805 54.3187 53.3044 54.3187C49.6497 54.3187 43.4749 56.1281 36.6455 58.7793L14.742 53.1288C12.6951 52.6007 10.5158 52.926 8.72305 54.0276L7.64607 54.6893C6.59467 55.3352 6.58351 56.8302 7.62511 57.4913L20.7917 65.8457C17.6464 67.4189 14.6623 69.0167 12.0316 70.5426L5.27531 67.0443C4.17172 66.4729 2.86694 66.4051 1.70788 66.8591L1.06835 67.1098C0.114633 67.4832 -0.284905 68.5925 0.219164 69.4681L3.94109 75.9354L3.94273 75.9348C2.53847 77.1164 1.73821 78.0963 1.73821 78.7744C1.73821 80.8039 4.29186 81.3112 6.54277 81.3112C10.5575 81.3112 63.5764 69.4385 63.5764 58.6823C63.5761 56.5521 62.0865 55.4868 59.639 54.916ZM37.2849 75.9166L48.9517 71.8971C49.4656 71.72 50.0148 72.055 50.0781 72.5844L51.101 81.1375C51.3566 83.2748 50.1811 85.3316 48.186 86.2387L47.0917 86.7361C46.4084 87.0467 45.5977 86.8802 45.0997 86.3272L36.9293 77.2497C36.5316 76.8076 36.7169 76.1124 37.2849 75.9166Z" fill="black"/>
</g>
<path d="M131.195 35H127.574V27.6055H120.789V35H117.156V17.8672H120.789V24.582H127.574V17.8672H131.195V35ZM140.652 21.6523C141.863 21.6523 142.906 21.8867 143.781 22.3555C144.656 22.8164 145.332 23.4883 145.809 24.3711C146.285 25.2539 146.523 26.332 146.523 27.6055V29.3398H138.074C138.113 30.3477 138.414 31.1406 138.977 31.7188C139.547 32.2891 140.336 32.5742 141.344 32.5742C142.18 32.5742 142.945 32.4883 143.641 32.3164C144.336 32.1445 145.051 31.8867 145.785 31.543V34.3086C145.137 34.6289 144.457 34.8633 143.746 35.0117C143.043 35.1602 142.188 35.2344 141.18 35.2344C139.867 35.2344 138.703 34.9922 137.688 34.5078C136.68 34.0234 135.887 33.2852 135.309 32.293C134.738 31.3008 134.453 30.0508 134.453 28.543C134.453 27.0117 134.711 25.7383 135.227 24.7227C135.75 23.6992 136.477 22.9336 137.406 22.4258C138.336 21.9102 139.418 21.6523 140.652 21.6523ZM140.676 24.1953C139.98 24.1953 139.402 24.418 138.941 24.8633C138.488 25.3086 138.227 26.0078 138.156 26.9609H143.172C143.164 26.4297 143.066 25.957 142.879 25.543C142.699 25.1289 142.426 24.8008 142.059 24.5586C141.699 24.3164 141.238 24.1953 140.676 24.1953ZM154.199 21.6523C155.145 21.6523 156.027 21.7773 156.848 22.0273C157.668 22.2695 158.332 22.6484 158.84 23.1641C159.348 23.6719 159.602 24.3281 159.602 25.1328C159.602 25.9219 159.363 26.5508 158.887 27.0195C158.41 27.4805 157.777 27.8125 156.988 28.0156V28.1328C157.543 28.2656 158.043 28.4453 158.488 28.6719C158.941 28.8984 159.301 29.2109 159.566 29.6094C159.832 30.0078 159.965 30.5312 159.965 31.1797C159.965 31.9062 159.734 32.5781 159.273 33.1953C158.812 33.8047 158.105 34.2969 157.152 34.6719C156.207 35.0469 154.992 35.2344 153.508 35.2344C152.805 35.2344 152.141 35.2031 151.516 35.1406C150.898 35.0781 150.332 34.9883 149.816 34.8711C149.301 34.7461 148.852 34.5977 148.469 34.4258V31.4727C149.008 31.7227 149.672 31.9531 150.461 32.1641C151.258 32.375 152.105 32.4805 153.004 32.4805C153.652 32.4805 154.238 32.4336 154.762 32.3398C155.293 32.2461 155.711 32.0898 156.016 31.8711C156.328 31.6445 156.484 31.3438 156.484 30.9688C156.484 30.6172 156.348 30.3281 156.074 30.1016C155.809 29.8672 155.398 29.6953 154.844 29.5859C154.297 29.4688 153.602 29.4102 152.758 29.4102H151.375V26.9375H152.688C153.875 26.9375 154.793 26.8398 155.441 26.6445C156.09 26.4492 156.414 26.0898 156.414 25.5664C156.414 25.1445 156.207 24.8281 155.793 24.6172C155.379 24.4062 154.695 24.3008 153.742 24.3008C153.125 24.3008 152.445 24.375 151.703 24.5234C150.961 24.6641 150.266 24.8672 149.617 25.1328L148.562 22.6367C149.32 22.3477 150.141 22.1133 151.023 21.9336C151.914 21.7461 152.973 21.6523 154.199 21.6523ZM168.133 21.6289C169.891 21.6289 171.238 22.0117 172.176 22.7773C173.113 23.543 173.582 24.707 173.582 26.2695V35H171.086L170.395 33.2188H170.301C169.926 33.6875 169.543 34.0703 169.152 34.3672C168.762 34.6641 168.312 34.8828 167.805 35.0234C167.297 35.1641 166.68 35.2344 165.953 35.2344C165.18 35.2344 164.484 35.0859 163.867 34.7891C163.258 34.4922 162.777 34.0391 162.426 33.4297C162.074 32.8125 161.898 32.0312 161.898 31.0859C161.898 29.6953 162.387 28.6719 163.363 28.0156C164.34 27.3516 165.805 26.9844 167.758 26.9141L170.031 26.8438V26.2695C170.031 25.582 169.852 25.0781 169.492 24.7578C169.133 24.4375 168.633 24.2773 167.992 24.2773C167.359 24.2773 166.738 24.3672 166.129 24.5469C165.52 24.7266 164.91 24.9531 164.301 25.2266L163.117 22.8125C163.812 22.4453 164.59 22.1562 165.449 21.9453C166.316 21.7344 167.211 21.6289 168.133 21.6289ZM170.031 28.9297L168.648 28.9766C167.492 29.0078 166.688 29.2148 166.234 29.5977C165.789 29.9805 165.566 30.4844 165.566 31.1094C165.566 31.6562 165.727 32.0469 166.047 32.2812C166.367 32.5078 166.785 32.6211 167.301 32.6211C168.066 32.6211 168.711 32.3945 169.234 31.9414C169.766 31.4883 170.031 30.8438 170.031 30.0078V28.9297ZM176.477 27.1484C176.477 25.2188 176.715 23.5781 177.191 22.2266C177.668 20.875 178.426 19.7969 179.465 18.9922C180.504 18.1797 181.867 17.6289 183.555 17.3398C184.398 17.1914 185.254 17.0703 186.121 16.9766C186.996 16.875 187.902 16.7617 188.84 16.6367L189.25 19.7656C188.844 19.8125 188.402 19.8633 187.926 19.918C187.449 19.9727 186.969 20.0312 186.484 20.0938C186 20.1484 185.531 20.207 185.078 20.2695C184.625 20.3242 184.215 20.3789 183.848 20.4336C183.051 20.5586 182.387 20.7539 181.855 21.0195C181.324 21.2852 180.918 21.707 180.637 22.2852C180.355 22.8633 180.184 23.6953 180.121 24.7812H180.297C180.484 24.4844 180.75 24.1836 181.094 23.8789C181.438 23.5664 181.863 23.3086 182.371 23.1055C182.879 22.8945 183.465 22.7891 184.129 22.7891C185.176 22.7891 186.082 23.0039 186.848 23.4336C187.613 23.8633 188.203 24.5039 188.617 25.3555C189.039 26.1992 189.25 27.2539 189.25 28.5195C189.25 30.0039 188.977 31.2461 188.43 32.2461C187.891 33.2383 187.141 33.9844 186.18 34.4844C185.219 34.9844 184.105 35.2344 182.84 35.2344C181.871 35.2344 180.996 35.0586 180.215 34.707C179.434 34.3555 178.762 33.8359 178.199 33.1484C177.645 32.4609 177.219 31.6172 176.922 30.6172C176.625 29.6094 176.477 28.4531 176.477 27.1484ZM183.051 32.3398C183.559 32.3398 184 32.2305 184.375 32.0117C184.758 31.7852 185.055 31.418 185.266 30.9102C185.484 30.3945 185.594 29.7031 185.594 28.8359C185.594 27.7891 185.418 26.9609 185.066 26.3516C184.723 25.7344 184.133 25.4258 183.297 25.4258C182.789 25.4258 182.312 25.5508 181.867 25.8008C181.43 26.043 181.059 26.3242 180.754 26.6445C180.449 26.957 180.238 27.2227 180.121 27.4414C180.121 28.0586 180.168 28.6602 180.262 29.2461C180.363 29.8242 180.523 30.3477 180.742 30.8164C180.961 31.2852 181.258 31.6562 181.633 31.9297C182.016 32.2031 182.488 32.3398 183.051 32.3398ZM192.203 35V21.8984H195.777V26.9609H197.5C198.836 26.9609 199.938 27.1016 200.805 27.3828C201.68 27.6641 202.328 28.0938 202.75 28.6719C203.172 29.2422 203.383 29.9609 203.383 30.8281C203.383 31.6719 203.188 32.4062 202.797 33.0312C202.406 33.6562 201.789 34.1406 200.945 34.4844C200.102 34.8281 198.996 35 197.629 35H192.203ZM195.777 32.5273H197.43C198.125 32.5273 198.695 32.4023 199.141 32.1523C199.586 31.8945 199.809 31.4688 199.809 30.875C199.809 30.3672 199.605 30 199.199 29.7734C198.793 29.5469 198.188 29.4336 197.383 29.4336H195.777V32.5273ZM205.281 35V21.8984H208.855V35H205.281ZM224.23 25.332C224.23 26.0352 224.008 26.6367 223.562 27.1367C223.125 27.6289 222.477 27.9453 221.617 28.0859V28.1797C222.523 28.2891 223.254 28.6055 223.809 29.1289C224.363 29.6445 224.641 30.2969 224.641 31.0859C224.641 31.8359 224.445 32.5078 224.055 33.1016C223.664 33.6875 223.043 34.1523 222.191 34.4961C221.34 34.832 220.227 35 218.852 35H212.617V21.8984H218.852C219.875 21.8984 220.793 22.0078 221.605 22.2266C222.418 22.4375 223.059 22.793 223.527 23.293C223.996 23.793 224.23 24.4727 224.23 25.332ZM220.938 30.8984C220.938 30.3828 220.734 30.0117 220.328 29.7852C219.93 29.5508 219.336 29.4336 218.547 29.4336H216.191V32.5273H218.617C219.289 32.5273 219.844 32.4023 220.281 32.1523C220.719 31.9023 220.938 31.4844 220.938 30.8984ZM220.609 25.6133C220.609 25.207 220.449 24.9062 220.129 24.7109C219.809 24.5156 219.336 24.418 218.711 24.418H216.191V27.0078H218.301C219.059 27.0078 219.633 26.8984 220.023 26.6797C220.414 26.4609 220.609 26.1055 220.609 25.6133ZM233.078 21.6289C234.836 21.6289 236.184 22.0117 237.121 22.7773C238.059 23.543 238.527 24.707 238.527 26.2695V35H236.031L235.34 33.2188H235.246C234.871 33.6875 234.488 34.0703 234.098 34.3672C233.707 34.6641 233.258 34.8828 232.75 35.0234C232.242 35.1641 231.625 35.2344 230.898 35.2344C230.125 35.2344 229.43 35.0859 228.812 34.7891C228.203 34.4922 227.723 34.0391 227.371 33.4297C227.02 32.8125 226.844 32.0312 226.844 31.0859C226.844 29.6953 227.332 28.6719 228.309 28.0156C229.285 27.3516 230.75 26.9844 232.703 26.9141L234.977 26.8438V26.2695C234.977 25.582 234.797 25.0781 234.438 24.7578C234.078 24.4375 233.578 24.2773 232.938 24.2773C232.305 24.2773 231.684 24.3672 231.074 24.5469C230.465 24.7266 229.855 24.9531 229.246 25.2266L228.062 22.8125C228.758 22.4453 229.535 22.1562 230.395 21.9453C231.262 21.7344 232.156 21.6289 233.078 21.6289ZM234.977 28.9297L233.594 28.9766C232.438 29.0078 231.633 29.2148 231.18 29.5977C230.734 29.9805 230.512 30.4844 230.512 31.1094C230.512 31.6562 230.672 32.0469 230.992 32.2812C231.312 32.5078 231.73 32.6211 232.246 32.6211C233.012 32.6211 233.656 32.3945 234.18 31.9414C234.711 31.4883 234.977 30.8438 234.977 30.0078V28.9297ZM247.621 21.6523C248.832 21.6523 249.875 21.8867 250.75 22.3555C251.625 22.8164 252.301 23.4883 252.777 24.3711C253.254 25.2539 253.492 26.332 253.492 27.6055V29.3398H245.043C245.082 30.3477 245.383 31.1406 245.945 31.7188C246.516 32.2891 247.305 32.5742 248.312 32.5742C249.148 32.5742 249.914 32.4883 250.609 32.3164C251.305 32.1445 252.02 31.8867 252.754 31.543V34.3086C252.105 34.6289 251.426 34.8633 250.715 35.0117C250.012 35.1602 249.156 35.2344 248.148 35.2344C246.836 35.2344 245.672 34.9922 244.656 34.5078C243.648 34.0234 242.855 33.2852 242.277 32.293C241.707 31.3008 241.422 30.0508 241.422 28.543C241.422 27.0117 241.68 25.7383 242.195 24.7227C242.719 23.6992 243.445 22.9336 244.375 22.4258C245.305 21.9102 246.387 21.6523 247.621 21.6523ZM247.645 24.1953C246.949 24.1953 246.371 24.418 245.91 24.8633C245.457 25.3086 245.195 26.0078 245.125 26.9609H250.141C250.133 26.4297 250.035 25.957 249.848 25.543C249.668 25.1289 249.395 24.8008 249.027 24.5586C248.668 24.3164 248.207 24.1953 247.645 24.1953ZM272.91 21.8984V35H269.57V28.5664C269.57 27.9336 269.582 27.3125 269.605 26.7031C269.629 26.0938 269.664 25.5312 269.711 25.0156H269.641L266.02 35H263.336L259.656 24.9922H259.562C259.625 25.5156 259.668 26.0781 259.691 26.6797C259.715 27.2812 259.727 27.9414 259.727 28.6602V35H256.398V21.8984H261.461L264.719 30.7812L268.035 21.8984H272.91ZM288.578 28.4258C288.578 29.5195 288.43 30.4883 288.133 31.332C287.844 32.1758 287.418 32.8906 286.855 33.4766C286.301 34.0547 285.629 34.4922 284.84 34.7891C284.059 35.0859 283.176 35.2344 282.191 35.2344C281.27 35.2344 280.422 35.0859 279.648 34.7891C278.883 34.4922 278.215 34.0547 277.645 33.4766C277.082 32.8906 276.645 32.1758 276.332 31.332C276.027 30.4883 275.875 29.5195 275.875 28.4258C275.875 26.9727 276.133 25.7422 276.648 24.7344C277.164 23.7266 277.898 22.9609 278.852 22.4375C279.805 21.9141 280.941 21.6523 282.262 21.6523C283.488 21.6523 284.574 21.9141 285.52 22.4375C286.473 22.9609 287.219 23.7266 287.758 24.7344C288.305 25.7422 288.578 26.9727 288.578 28.4258ZM279.52 28.4258C279.52 29.2852 279.613 30.0078 279.801 30.5938C279.988 31.1797 280.281 31.6211 280.68 31.918C281.078 32.2148 281.598 32.3633 282.238 32.3633C282.871 32.3633 283.383 32.2148 283.773 31.918C284.172 31.6211 284.461 31.1797 284.641 30.5938C284.828 30.0078 284.922 29.2852 284.922 28.4258C284.922 27.5586 284.828 26.8398 284.641 26.2695C284.461 25.6914 284.172 25.2578 283.773 24.9688C283.375 24.6797 282.855 24.5352 282.215 24.5352C281.27 24.5352 280.582 24.8594 280.152 25.5078C279.73 26.1562 279.52 27.1289 279.52 28.4258ZM296.934 21.6523C298.145 21.6523 299.188 21.8867 300.062 22.3555C300.938 22.8164 301.613 23.4883 302.09 24.3711C302.566 25.2539 302.805 26.332 302.805 27.6055V29.3398H294.355C294.395 30.3477 294.695 31.1406 295.258 31.7188C295.828 32.2891 296.617 32.5742 297.625 32.5742C298.461 32.5742 299.227 32.4883 299.922 32.3164C300.617 32.1445 301.332 31.8867 302.066 31.543V34.3086C301.418 34.6289 300.738 34.8633 300.027 35.0117C299.324 35.1602 298.469 35.2344 297.461 35.2344C296.148 35.2344 294.984 34.9922 293.969 34.5078C292.961 34.0234 292.168 33.2852 291.59 32.293C291.02 31.3008 290.734 30.0508 290.734 28.543C290.734 27.0117 290.992 25.7383 291.508 24.7227C292.031 23.6992 292.758 22.9336 293.688 22.4258C294.617 21.9102 295.699 21.6523 296.934 21.6523ZM296.957 24.1953C296.262 24.1953 295.684 24.418 295.223 24.8633C294.77 25.3086 294.508 26.0078 294.438 26.9609H299.453C299.445 26.4297 299.348 25.957 299.16 25.543C298.98 25.1289 298.707 24.8008 298.34 24.5586C297.98 24.3164 297.52 24.1953 296.957 24.1953ZM128.781 54.8984V68H125.195V57.582H120.449V68H116.875V54.8984H128.781ZM130.656 54.8984H134.57L137.043 62.2695C137.121 62.5039 137.188 62.7422 137.242 62.9844C137.297 63.2266 137.344 63.4766 137.383 63.7344C137.422 63.9922 137.453 64.2617 137.477 64.543H137.547C137.594 64.1211 137.656 63.7266 137.734 63.3594C137.82 62.9922 137.926 62.6289 138.051 62.2695L140.477 54.8984H144.309L138.766 69.6758C138.43 70.582 137.992 71.3359 137.453 71.9375C136.914 72.5469 136.293 73.0039 135.59 73.3086C134.895 73.6133 134.129 73.7656 133.293 73.7656C132.887 73.7656 132.535 73.7422 132.238 73.6953C131.941 73.6562 131.688 73.6133 131.477 73.5664V70.7305C131.641 70.7695 131.848 70.8047 132.098 70.8359C132.348 70.8672 132.609 70.8828 132.883 70.8828C133.383 70.8828 133.812 70.7773 134.172 70.5664C134.531 70.3555 134.832 70.0703 135.074 69.7109C135.316 69.3594 135.508 68.9727 135.648 68.5508L135.859 67.9062L130.656 54.8984ZM157.035 57.582H152.746V68H149.172V57.582H144.871V54.8984H157.035V57.582ZM164.887 54.6523C166.098 54.6523 167.141 54.8867 168.016 55.3555C168.891 55.8164 169.566 56.4883 170.043 57.3711C170.52 58.2539 170.758 59.332 170.758 60.6055V62.3398H162.309C162.348 63.3477 162.648 64.1406 163.211 64.7188C163.781 65.2891 164.57 65.5742 165.578 65.5742C166.414 65.5742 167.18 65.4883 167.875 65.3164C168.57 65.1445 169.285 64.8867 170.02 64.543V67.3086C169.371 67.6289 168.691 67.8633 167.98 68.0117C167.277 68.1602 166.422 68.2344 165.414 68.2344C164.102 68.2344 162.938 67.9922 161.922 67.5078C160.914 67.0234 160.121 66.2852 159.543 65.293C158.973 64.3008 158.688 63.0508 158.688 61.543C158.688 60.0117 158.945 58.7383 159.461 57.7227C159.984 56.6992 160.711 55.9336 161.641 55.4258C162.57 54.9102 163.652 54.6523 164.887 54.6523ZM164.91 57.1953C164.215 57.1953 163.637 57.418 163.176 57.8633C162.723 58.3086 162.461 59.0078 162.391 59.9609H167.406C167.398 59.4297 167.301 58.957 167.113 58.543C166.934 58.1289 166.66 57.8008 166.293 57.5586C165.934 57.3164 165.473 57.1953 164.91 57.1953ZM193.176 54.8984V68H173.664V54.8984H177.238V65.3164H181.633V54.8984H185.207V65.3164H189.602V54.8984H193.176ZM202.34 54.6523C203.551 54.6523 204.594 54.8867 205.469 55.3555C206.344 55.8164 207.02 56.4883 207.496 57.3711C207.973 58.2539 208.211 59.332 208.211 60.6055V62.3398H199.762C199.801 63.3477 200.102 64.1406 200.664 64.7188C201.234 65.2891 202.023 65.5742 203.031 65.5742C203.867 65.5742 204.633 65.4883 205.328 65.3164C206.023 65.1445 206.738 64.8867 207.473 64.543V67.3086C206.824 67.6289 206.145 67.8633 205.434 68.0117C204.73 68.1602 203.875 68.2344 202.867 68.2344C201.555 68.2344 200.391 67.9922 199.375 67.5078C198.367 67.0234 197.574 66.2852 196.996 65.293C196.426 64.3008 196.141 63.0508 196.141 61.543C196.141 60.0117 196.398 58.7383 196.914 57.7227C197.438 56.6992 198.164 55.9336 199.094 55.4258C200.023 54.9102 201.105 54.6523 202.34 54.6523ZM202.363 57.1953C201.668 57.1953 201.09 57.418 200.629 57.8633C200.176 58.3086 199.914 59.0078 199.844 59.9609H204.859C204.852 59.4297 204.754 58.957 204.566 58.543C204.387 58.1289 204.113 57.8008 203.746 57.5586C203.387 57.3164 202.926 57.1953 202.363 57.1953ZM216.438 68.2344C215.141 68.2344 214.035 68 213.121 67.5312C212.207 67.0547 211.512 66.3203 211.035 65.3281C210.559 64.3359 210.32 63.0664 210.32 61.5195C210.32 59.918 210.59 58.6133 211.129 57.6055C211.676 56.5898 212.43 55.8438 213.391 55.3672C214.359 54.8906 215.48 54.6523 216.754 54.6523C217.66 54.6523 218.441 54.7422 219.098 54.9219C219.762 55.0938 220.34 55.3008 220.832 55.543L219.777 58.3086C219.215 58.082 218.691 57.8984 218.207 57.7578C217.723 57.6094 217.238 57.5352 216.754 57.5352C216.129 57.5352 215.609 57.6836 215.195 57.9805C214.781 58.2695 214.473 58.707 214.27 59.293C214.066 59.8789 213.965 60.6133 213.965 61.4961C213.965 62.3633 214.074 63.082 214.293 63.6523C214.512 64.2227 214.828 64.6484 215.242 64.9297C215.656 65.2031 216.16 65.3398 216.754 65.3398C217.496 65.3398 218.156 65.2422 218.734 65.0469C219.312 64.8438 219.875 64.5625 220.422 64.2031V67.2617C219.875 67.6055 219.301 67.8516 218.699 68C218.105 68.1562 217.352 68.2344 216.438 68.2344ZM234.309 57.582H230.02V68H226.445V57.582H222.145V54.8984H234.309V57.582ZM248.371 58.332C248.371 59.0352 248.148 59.6367 247.703 60.1367C247.266 60.6289 246.617 60.9453 245.758 61.0859V61.1797C246.664 61.2891 247.395 61.6055 247.949 62.1289C248.504 62.6445 248.781 63.2969 248.781 64.0859C248.781 64.8359 248.586 65.5078 248.195 66.1016C247.805 66.6875 247.184 67.1523 246.332 67.4961C245.48 67.832 244.367 68 242.992 68H236.758V54.8984H242.992C244.016 54.8984 244.934 55.0078 245.746 55.2266C246.559 55.4375 247.199 55.793 247.668 56.293C248.137 56.793 248.371 57.4727 248.371 58.332ZM245.078 63.8984C245.078 63.3828 244.875 63.0117 244.469 62.7852C244.07 62.5508 243.477 62.4336 242.688 62.4336H240.332V65.5273H242.758C243.43 65.5273 243.984 65.4023 244.422 65.1523C244.859 64.9023 245.078 64.4844 245.078 63.8984ZM244.75 58.6133C244.75 58.207 244.59 57.9062 244.27 57.7109C243.949 57.5156 243.477 57.418 242.852 57.418H240.332V60.0078H242.441C243.199 60.0078 243.773 59.8984 244.164 59.6797C244.555 59.4609 244.75 59.1055 244.75 58.6133ZM255.309 54.8984V60.0781C255.309 60.3438 255.297 60.6797 255.273 61.0859C255.258 61.4844 255.234 61.8906 255.203 62.3047C255.172 62.7188 255.141 63.0898 255.109 63.418C255.078 63.7461 255.055 63.9688 255.039 64.0859L261.086 54.8984H265.387V68H261.93V62.7734C261.93 62.3438 261.945 61.8711 261.977 61.3555C262.008 60.832 262.043 60.3398 262.082 59.8789C262.121 59.418 262.148 59.0703 262.164 58.8359L256.141 68H251.852V54.8984H255.309ZM274.551 54.6523C275.762 54.6523 276.805 54.8867 277.68 55.3555C278.555 55.8164 279.23 56.4883 279.707 57.3711C280.184 58.2539 280.422 59.332 280.422 60.6055V62.3398H271.973C272.012 63.3477 272.312 64.1406 272.875 64.7188C273.445 65.2891 274.234 65.5742 275.242 65.5742C276.078 65.5742 276.844 65.4883 277.539 65.3164C278.234 65.1445 278.949 64.8867 279.684 64.543V67.3086C279.035 67.6289 278.355 67.8633 277.645 68.0117C276.941 68.1602 276.086 68.2344 275.078 68.2344C273.766 68.2344 272.602 67.9922 271.586 67.5078C270.578 67.0234 269.785 66.2852 269.207 65.293C268.637 64.3008 268.352 63.0508 268.352 61.543C268.352 60.0117 268.609 58.7383 269.125 57.7227C269.648 56.6992 270.375 55.9336 271.305 55.4258C272.234 54.9102 273.316 54.6523 274.551 54.6523ZM274.574 57.1953C273.879 57.1953 273.301 57.418 272.84 57.8633C272.387 58.3086 272.125 59.0078 272.055 59.9609H277.07C277.062 59.4297 276.965 58.957 276.777 58.543C276.598 58.1289 276.324 57.8008 275.957 57.5586C275.598 57.3164 275.137 57.1953 274.574 57.1953Z" fill="black"/>
<defs>
<clipPath id="clip0_0_16">
<rect width="91" height="89" fill="white"/>
</clipPath>
</defs>
</svg>
