<svg width="59" height="57" viewBox="0 0 59 57" fill="none" xmlns="http://www.w3.org/2000/svg">
<path fill-rule="evenodd" clip-rule="evenodd" d="M3.84781e-06 28.4999C3.84781e-06 12.7679 13.216 -1.15467e-05 29.5 -1.15467e-05C45.784 -1.15467e-05 59 12.7679 59 28.4999C59 44.2319 45.784 57 29.5 57C13.216 57 3.84781e-06 44.2319 3.84781e-06 28.4999ZM23.6 18.525V38.475C23.6 39.6435 24.9865 40.3275 25.96 39.6149L39.7365 29.64C40.533 29.07 40.533 27.93 39.7365 27.36L25.96 17.3849C24.9865 16.6725 23.6 17.3565 23.6 18.525Z" fill="white"/>
</svg>
