<svg width="339" height="444" viewBox="0 0 339 444" fill="none" xmlns="http://www.w3.org/2000/svg">
<g filter="url(#filter0_i_0_108)">
<path fill-rule="evenodd" clip-rule="evenodd" d="M89 9.36065C89 6.29004 91.5973 3.80658 94.8087 3.80658C98.0201 3.80658 100.617 6.29004 100.617 9.36065C100.617 12.6693 96.9496 17.2316 95.4477 18.9692C95.1157 19.35 94.51 19.35 94.178 18.9692C92.6678 17.2316 89 12.6693 89 9.36065ZM92.7342 9.36065C92.7342 10.4556 93.6636 11.3442 94.8087 11.3442C95.9538 11.3442 96.8832 10.4556 96.8832 9.36065C96.8832 8.2657 95.9538 7.37705 94.8087 7.37705C93.6636 7.37705 92.7342 8.2657 92.7342 9.36065Z" fill="black"/>
</g>
<g filter="url(#filter1_i_0_108)">
<path fill-rule="evenodd" clip-rule="evenodd" d="M253 174.81C253 171.739 255.597 169.256 258.809 169.256C262.02 169.256 264.617 171.739 264.617 174.81C264.617 178.119 260.95 182.681 259.448 184.419C259.116 184.799 258.51 184.799 258.178 184.419C256.668 182.681 253 178.119 253 174.81ZM256.734 174.81C256.734 175.905 257.664 176.794 258.809 176.794C259.954 176.794 260.883 175.905 260.883 174.81C260.883 173.715 259.954 172.826 258.809 172.826C257.664 172.826 256.734 173.715 256.734 174.81Z" fill="black"/>
</g>
<g filter="url(#filter2_i_0_108)">
<path fill-rule="evenodd" clip-rule="evenodd" d="M95 227.219C95 224.149 97.5973 221.665 100.809 221.665C104.02 221.665 106.617 224.149 106.617 227.219C106.617 230.528 102.95 235.09 101.448 236.828C101.116 237.209 100.51 237.209 100.178 236.828C98.6678 235.09 95 230.528 95 227.219ZM98.7342 227.219C98.7342 228.314 99.6636 229.203 100.809 229.203C101.954 229.203 102.883 228.314 102.883 227.219C102.883 226.124 101.954 225.236 100.809 225.236C99.6636 225.236 98.7342 226.124 98.7342 227.219Z" fill="black"/>
</g>
<g filter="url(#filter3_i_0_108)">
<path fill-rule="evenodd" clip-rule="evenodd" d="M27 328.955C27 325.885 29.5973 323.401 32.8087 323.401C36.0201 323.401 38.6174 325.885 38.6174 328.955C38.6174 332.264 34.9496 336.826 33.4476 338.564C33.1157 338.945 32.51 338.945 32.178 338.564C30.6678 336.826 27 332.264 27 328.955ZM30.7342 328.955C30.7342 330.05 31.6636 330.939 32.8087 330.939C33.9538 330.939 34.8832 330.05 34.8832 328.955C34.8832 327.86 33.9538 326.972 32.8087 326.972C31.6636 326.972 30.7342 327.86 30.7342 328.955Z" fill="black"/>
</g>
<g filter="url(#filter4_i_0_108)">
<path fill-rule="evenodd" clip-rule="evenodd" d="M241.156 391.593C241.156 388.522 243.754 386.038 246.965 386.038C250.177 386.038 252.774 388.522 252.774 391.593C252.774 394.901 249.106 399.464 247.604 401.201C247.272 401.582 246.666 401.582 246.335 401.201C244.824 399.464 241.156 394.901 241.156 391.593ZM244.891 391.593C244.891 392.688 245.82 393.576 246.965 393.576C248.11 393.576 249.04 392.688 249.04 391.593C249.04 390.498 248.11 389.609 246.965 389.609C245.82 389.609 244.891 390.498 244.891 391.593Z" fill="black"/>
</g>
<path d="M7.61971 23.6343C86.4802 35.7344 164.974 64.5131 164.974 64.5131C164.974 64.5131 295.186 115.203 309.857 155.101C341.016 239.832 180.012 247.323 116.19 256.807C52.3685 266.291 -15.4883 281.988 7.61971 341.181C30.7277 400.374 155.067 407.568 175.978 407.568C204.221 407.568 290.784 406.587 337 441.579" stroke="black" stroke-width="5" stroke-dasharray="12 12"/>
<path d="M16.2578 15.7236V5.72949H22.5742V7.47949H18.377V9.56445H19.2109C20.1497 9.56445 20.9199 9.69434 21.5215 9.9541C22.1276 10.2139 22.5742 10.5739 22.8613 11.0342C23.153 11.4899 23.2988 12.0117 23.2988 12.5996C23.2988 13.5885 22.9684 14.3564 22.3076 14.9033C21.6514 15.4502 20.6055 15.7236 19.1699 15.7236H16.2578ZM18.377 13.9873H19.0879C19.7305 13.9873 20.2363 13.8848 20.6055 13.6797C20.9746 13.4701 21.1592 13.11 21.1592 12.5996C21.1592 12.2441 21.068 11.973 20.8857 11.7861C20.708 11.5993 20.4505 11.4717 20.1133 11.4033C19.7806 11.335 19.3818 11.3008 18.917 11.3008H18.377V13.9873ZM31.3174 15.7236L30.5928 13.3447H26.9492L26.2246 15.7236H23.9414L27.4688 5.68848H30.0596L33.6006 15.7236H31.3174ZM30.0869 11.5674L29.3623 9.24316C29.3167 9.08822 29.2552 8.88997 29.1777 8.64844C29.1048 8.40234 29.0296 8.15397 28.9521 7.90332C28.8792 7.64811 28.82 7.42708 28.7744 7.24023C28.7288 7.42708 28.665 7.65951 28.583 7.9375C28.5055 8.21094 28.4303 8.4707 28.3574 8.7168C28.2845 8.96289 28.2321 9.13835 28.2002 9.24316L27.4824 11.5674H30.0869ZM43.0547 15.7236H40.9424V11.4102H36.9844V15.7236H34.8652V5.72949H36.9844V9.64648H40.9424V5.72949H43.0547V15.7236ZM51.9004 5.72949V7.47949H47.7031V15.7236H45.584V5.72949H51.9004ZM61.5938 15.7236H59.1875L55.5645 10.6582V15.7236H53.4453V5.72949H55.5645V10.5693L59.1465 5.72949H61.4023L57.7588 10.5283L61.5938 15.7236ZM71.9229 10.7129C71.9229 11.4831 71.8271 12.1849 71.6357 12.8184C71.4443 13.4473 71.1527 13.9896 70.7607 14.4453C70.3734 14.901 69.8812 15.252 69.2842 15.498C68.6872 15.7396 67.9808 15.8604 67.165 15.8604C66.3493 15.8604 65.6429 15.7396 65.0459 15.498C64.4489 15.252 63.9544 14.901 63.5625 14.4453C63.1751 13.9896 62.8857 13.445 62.6943 12.8115C62.5029 12.1781 62.4072 11.474 62.4072 10.6992C62.4072 9.66471 62.5758 8.76465 62.9131 7.99902C63.2549 7.22884 63.779 6.63184 64.4854 6.20801C65.1917 5.78418 66.0895 5.57227 67.1787 5.57227C68.2633 5.57227 69.1543 5.78418 69.8516 6.20801C70.5534 6.63184 71.0729 7.22884 71.4102 7.99902C71.752 8.76921 71.9229 9.67383 71.9229 10.7129ZM64.6289 10.7129C64.6289 11.4102 64.7155 12.0117 64.8887 12.5176C65.0664 13.0189 65.3421 13.4062 65.7158 13.6797C66.0895 13.9486 66.5726 14.083 67.165 14.083C67.7666 14.083 68.2542 13.9486 68.6279 13.6797C69.0016 13.4062 69.2728 13.0189 69.4414 12.5176C69.6146 12.0117 69.7012 11.4102 69.7012 10.7129C69.7012 9.66471 69.5052 8.83984 69.1133 8.23828C68.7214 7.63672 68.0765 7.33594 67.1787 7.33594C66.5817 7.33594 66.0941 7.47266 65.7158 7.74609C65.3421 8.01497 65.0664 8.40234 64.8887 8.9082C64.7155 9.40951 64.6289 10.0111 64.6289 10.7129ZM82.1426 15.7236H79.7363L76.1133 10.6582V15.7236H73.9941V5.72949H76.1133V10.5693L79.6953 5.72949H81.9512L78.3076 10.5283L82.1426 15.7236Z" fill="black"/>
<path d="M181.258 184.256V174.262H189.167V184.256H187.055V176.025H183.377V184.256H181.258ZM197.808 184.256L197.083 181.877H193.439L192.715 184.256H190.432L193.959 174.221H196.55L200.091 184.256H197.808ZM196.577 180.1L195.853 177.775C195.807 177.62 195.745 177.422 195.668 177.181C195.595 176.935 195.52 176.686 195.442 176.436C195.369 176.18 195.31 175.959 195.265 175.772C195.219 175.959 195.155 176.192 195.073 176.47C194.996 176.743 194.921 177.003 194.848 177.249C194.775 177.495 194.722 177.671 194.69 177.775L193.973 180.1H196.577ZM205.211 184.256H203.092V176.025H200.378V174.262H207.925V176.025H205.211V184.256ZM213.318 184.256H211.199V176.025H208.485V174.262H216.032V176.025H213.318V184.256ZM223.688 184.256L222.964 181.877H219.32L218.596 184.256H216.312L219.84 174.221H222.431L225.972 184.256H223.688ZM222.458 180.1L221.733 177.775C221.688 177.62 221.626 177.422 221.549 177.181C221.476 176.935 221.401 176.686 221.323 176.436C221.25 176.18 221.191 175.959 221.146 175.772C221.1 175.959 221.036 176.192 220.954 176.47C220.877 176.743 220.801 177.003 220.729 177.249C220.656 177.495 220.603 177.671 220.571 177.775L219.854 180.1H222.458ZM227.236 174.262H229.144V179.088C229.144 179.325 229.139 179.587 229.13 179.874C229.125 180.161 229.116 180.444 229.103 180.722C229.093 180.995 229.084 181.234 229.075 181.439C229.066 181.645 229.057 181.781 229.048 181.85H229.089L233.703 174.262H236.239V184.256H234.353V179.457C234.353 179.202 234.357 178.924 234.366 178.623C234.375 178.322 234.387 178.031 234.4 177.748C234.419 177.465 234.435 177.222 234.448 177.017C234.462 176.807 234.471 176.668 234.476 176.6H234.421L229.786 184.256H227.236V174.262ZM235.289 170.974C235.239 171.457 235.102 171.883 234.879 172.252C234.656 172.621 234.307 172.908 233.833 173.113C233.359 173.318 232.721 173.421 231.919 173.421C231.094 173.421 230.451 173.323 229.991 173.127C229.531 172.926 229.203 172.644 229.007 172.279C228.811 171.91 228.692 171.475 228.651 170.974H230.518C230.559 171.489 230.688 171.83 230.907 171.999C231.126 172.163 231.477 172.245 231.96 172.245C232.361 172.245 232.689 172.154 232.944 171.972C233.2 171.789 233.352 171.457 233.402 170.974H235.289ZM242.125 180.421L239.787 184.256H237.436L240.279 179.86C240.01 179.746 239.739 179.58 239.466 179.361C239.197 179.143 238.974 178.851 238.796 178.486C238.618 178.117 238.529 177.661 238.529 177.119C238.529 176.194 238.86 175.488 239.521 175C240.181 174.508 241.109 174.262 242.303 174.262H245.557V184.256H243.438V180.421H242.125ZM243.438 175.998H242.392C242.027 175.998 241.715 176.041 241.455 176.128C241.2 176.215 241.004 176.351 240.867 176.538C240.735 176.72 240.669 176.964 240.669 177.27C240.669 177.712 240.815 178.06 241.106 178.315C241.398 178.571 241.845 178.698 242.446 178.698H243.438V175.998Z" fill="black"/>
<path d="M11.9346 237H9.81543V233.138C9.22754 233.338 8.68978 233.491 8.20215 233.596C7.71452 233.701 7.22233 233.753 6.72559 233.753C5.78678 233.753 5.05534 233.527 4.53125 233.076C4.00716 232.62 3.74512 231.973 3.74512 231.135V227.006H5.85742V230.533C5.85742 231.016 5.96908 231.381 6.19238 231.627C6.41569 231.868 6.79395 231.989 7.32715 231.989C7.71908 231.989 8.111 231.948 8.50293 231.866C8.89486 231.78 9.33236 231.652 9.81543 231.483V227.006H11.9346V237ZM14.457 227.006H16.3643V231.832C16.3643 232.069 16.3597 232.331 16.3506 232.618C16.346 232.905 16.3369 233.188 16.3232 233.466C16.3141 233.739 16.305 233.979 16.2959 234.184C16.2868 234.389 16.2777 234.525 16.2686 234.594H16.3096L20.9238 227.006H23.46V237H21.5732V232.201C21.5732 231.946 21.5778 231.668 21.5869 231.367C21.596 231.066 21.6074 230.775 21.6211 230.492C21.6393 230.21 21.6553 229.966 21.6689 229.761C21.6826 229.551 21.6917 229.412 21.6963 229.344H21.6416L17.0068 237H14.457V227.006ZM32.1006 237L31.376 234.621H27.7324L27.0078 237H24.7246L28.252 226.965H30.8428L34.3838 237H32.1006ZM30.8701 232.844L30.1455 230.52C30.0999 230.365 30.0384 230.166 29.9609 229.925C29.888 229.679 29.8128 229.43 29.7354 229.18C29.6624 228.924 29.6032 228.703 29.5576 228.517C29.512 228.703 29.4482 228.936 29.3662 229.214C29.2887 229.487 29.2135 229.747 29.1406 229.993C29.0677 230.239 29.0153 230.415 28.9834 230.52L28.2656 232.844H30.8701ZM43.8379 237H41.7256V232.687H37.7676V237H35.6484V227.006H37.7676V230.923H41.7256V227.006H43.8379V237ZM52.6836 227.006V228.756H48.4863V237H46.3672V227.006H52.6836ZM58.46 237L56.0537 229.159H55.9922C56.0013 229.346 56.015 229.629 56.0332 230.007C56.056 230.381 56.0765 230.779 56.0947 231.203C56.113 231.627 56.1221 232.01 56.1221 232.352V237H54.2285V227.006H57.1133L59.4785 234.648H59.5195L62.0283 227.006H64.9131V237H62.9375V232.27C62.9375 231.955 62.9421 231.593 62.9512 231.183C62.9648 230.772 62.9808 230.383 62.999 230.014C63.0173 229.64 63.0309 229.36 63.04 229.173H62.9785L60.4014 237H58.46ZM73.5537 237L72.8291 234.621H69.1855L68.4609 237H66.1777L69.7051 226.965H72.2959L75.8369 237H73.5537ZM72.3232 232.844L71.5986 230.52C71.5531 230.365 71.4915 230.166 71.4141 229.925C71.3411 229.679 71.266 229.43 71.1885 229.18C71.1156 228.924 71.0563 228.703 71.0107 228.517C70.9652 228.703 70.9014 228.936 70.8193 229.214C70.7419 229.487 70.6667 229.747 70.5938 229.993C70.5208 230.239 70.4684 230.415 70.4365 230.52L69.7188 232.844H72.3232ZM77.1016 227.006H79.0088V231.832C79.0088 232.069 79.0042 232.331 78.9951 232.618C78.9906 232.905 78.9814 233.188 78.9678 233.466C78.9587 233.739 78.9495 233.979 78.9404 234.184C78.9313 234.389 78.9222 234.525 78.9131 234.594H78.9541L83.5684 227.006H86.1045V237H84.2178V232.201C84.2178 231.946 84.2223 231.668 84.2314 231.367C84.2406 231.066 84.252 230.775 84.2656 230.492C84.2839 230.21 84.2998 229.966 84.3135 229.761C84.3271 229.551 84.3363 229.412 84.3408 229.344H84.2861L79.6514 237H77.1016V227.006ZM85.1543 223.718C85.1042 224.201 84.9674 224.627 84.7441 224.996C84.5208 225.365 84.1722 225.652 83.6982 225.857C83.2243 226.062 82.5863 226.165 81.7842 226.165C80.9593 226.165 80.3167 226.067 79.8564 225.871C79.3962 225.671 79.068 225.388 78.8721 225.023C78.6761 224.654 78.5576 224.219 78.5166 223.718H80.3828C80.4238 224.233 80.5537 224.575 80.7725 224.743C80.9912 224.907 81.3421 224.989 81.8252 224.989C82.2262 224.989 82.5544 224.898 82.8096 224.716C83.0648 224.534 83.2174 224.201 83.2676 223.718H85.1543Z" fill="black"/>
<path d="M58.376 338.401L57.6514 336.022H54.0078L53.2832 338.401H51L54.5273 328.366H57.1182L60.6592 338.401H58.376ZM57.1455 334.245L56.4209 331.921C56.3753 331.766 56.3138 331.568 56.2363 331.326C56.1634 331.08 56.0882 330.832 56.0107 330.581C55.9378 330.326 55.8786 330.105 55.833 329.918C55.7874 330.105 55.7236 330.337 55.6416 330.615C55.5641 330.889 55.4889 331.148 55.416 331.394C55.3431 331.641 55.2907 331.816 55.2588 331.921L54.541 334.245H57.1455ZM74.8369 333.391C74.8369 334.161 74.7458 334.863 74.5635 335.496C74.3857 336.125 74.1146 336.667 73.75 337.123C73.3854 337.579 72.9229 337.93 72.3623 338.176C71.8018 338.417 71.141 338.538 70.3799 338.538C69.4502 338.538 68.6686 338.356 68.0352 337.991C67.4062 337.622 66.9209 337.105 66.5791 336.439C66.2373 335.769 66.0299 334.986 65.957 334.088H64.043V338.401H61.9238V328.407H64.043V332.324H65.998C66.0983 331.495 66.3239 330.775 66.6748 330.164C67.0257 329.553 67.5088 329.082 68.124 328.749C68.7438 328.416 69.5003 328.25 70.3936 328.25C71.4053 328.25 72.2393 328.462 72.8955 328.886C73.5518 329.309 74.0394 329.906 74.3584 330.677C74.6774 331.447 74.8369 332.351 74.8369 333.391ZM68.1309 333.391C68.1309 334.088 68.2106 334.689 68.3701 335.195C68.5296 335.696 68.7757 336.084 69.1084 336.357C69.4411 336.626 69.8649 336.761 70.3799 336.761C70.9131 336.761 71.346 336.626 71.6787 336.357C72.016 336.084 72.262 335.696 72.417 335.195C72.5719 334.689 72.6494 334.088 72.6494 333.391C72.6494 332.689 72.5719 332.087 72.417 331.586C72.262 331.08 72.0182 330.693 71.6855 330.424C71.3574 330.15 70.9313 330.014 70.4072 330.014C69.8831 330.014 69.4525 330.15 69.1152 330.424C68.778 330.693 68.5296 331.08 68.3701 331.586C68.2106 332.087 68.1309 332.689 68.1309 333.391ZM80.7637 338.401H78.6445V330.171H75.9307V328.407H83.4775V330.171H80.7637V338.401ZM88.8711 338.401H86.752V330.171H84.0381V328.407H91.585V330.171H88.8711V338.401ZM101.203 338.401H98.7832L96.459 334.621L94.1348 338.401H91.8652L95.1807 333.247L92.0771 328.407H94.415L96.5684 332.003L98.6807 328.407H100.964L97.8262 333.363L101.203 338.401ZM108.579 338.401L107.854 336.022H104.211L103.486 338.401H101.203L104.73 328.366H107.321L110.862 338.401H108.579ZM107.349 334.245L106.624 331.921C106.578 331.766 106.517 331.568 106.439 331.326C106.367 331.08 106.291 330.832 106.214 330.581C106.141 330.326 106.082 330.105 106.036 329.918C105.991 330.105 105.927 330.337 105.845 330.615C105.767 330.889 105.692 331.148 105.619 331.394C105.546 331.641 105.494 331.816 105.462 331.921L104.744 334.245H107.349ZM115.49 334.566L113.152 338.401H110.801L113.645 334.006C113.376 333.892 113.104 333.725 112.831 333.507C112.562 333.288 112.339 332.996 112.161 332.632C111.983 332.263 111.895 331.807 111.895 331.265C111.895 330.339 112.225 329.633 112.886 329.145C113.547 328.653 114.474 328.407 115.668 328.407H118.922V338.401H116.803V334.566H115.49ZM116.803 330.143H115.757C115.392 330.143 115.08 330.187 114.82 330.273C114.565 330.36 114.369 330.497 114.232 330.683C114.1 330.866 114.034 331.11 114.034 331.415C114.034 331.857 114.18 332.206 114.472 332.461C114.763 332.716 115.21 332.844 115.812 332.844H116.803V330.143Z" fill="black"/>
<path d="M266.258 399.032V389.038H274.167V399.032H272.055V390.801H268.377V399.032H266.258ZM284.77 399.032H282.35L280.025 395.251L277.701 399.032H275.432L278.747 393.877L275.644 389.038H277.981L280.135 392.633L282.247 389.038H284.53L281.393 393.994L284.77 399.032ZM294.053 389.038L290.956 396.106C290.678 396.744 290.382 397.293 290.067 397.753C289.753 398.209 289.354 398.56 288.871 398.806C288.388 399.048 287.755 399.168 286.971 399.168C286.725 399.168 286.458 399.15 286.171 399.114C285.884 399.082 285.617 399.032 285.371 398.963V397.145C285.599 397.232 285.845 397.295 286.109 397.336C286.378 397.373 286.631 397.391 286.868 397.391C287.178 397.391 287.429 397.339 287.62 397.234C287.812 397.129 287.964 396.988 288.078 396.81C288.192 396.632 288.288 396.434 288.365 396.215L284.906 389.038H287.148L289.015 393.365C289.056 393.456 289.108 393.579 289.172 393.734C289.24 393.884 289.306 394.039 289.37 394.199C289.438 394.354 289.491 394.49 289.527 394.609H289.603C289.639 394.495 289.687 394.358 289.746 394.199C289.81 394.035 289.876 393.868 289.944 393.7C290.013 393.527 290.074 393.372 290.129 393.235L291.865 389.038H294.053ZM303.459 399.032H301.053L297.43 393.966V399.032H295.311V389.038H297.43V393.877L301.012 389.038H303.268L299.624 393.836L303.459 399.032ZM310.473 399.032H304.717V389.038H310.473V390.774H306.836V392.968H310.22V394.705H306.836V397.282H310.473V399.032ZM316.42 399.032H314.301V390.801H311.587V389.038H319.134V390.801H316.42V399.032Z" fill="black"/>
<defs>
<filter id="filter0_i_0_108" x="89" y="3.80658" width="11.6174" height="19.4482" filterUnits="userSpaceOnUse" color-interpolation-filters="sRGB">
<feFlood flood-opacity="0" result="BackgroundImageFix"/>
<feBlend mode="normal" in="SourceGraphic" in2="BackgroundImageFix" result="shape"/>
<feColorMatrix in="SourceAlpha" type="matrix" values="0 0 0 0 0 0 0 0 0 0 0 0 0 0 0 0 0 0 127 0" result="hardAlpha"/>
<feOffset dy="4"/>
<feGaussianBlur stdDeviation="2"/>
<feComposite in2="hardAlpha" operator="arithmetic" k2="-1" k3="1"/>
<feColorMatrix type="matrix" values="0 0 0 0 0 0 0 0 0 0 0 0 0 0 0 0 0 0 0.25 0"/>
<feBlend mode="normal" in2="shape" result="effect1_innerShadow_0_108"/>
</filter>
<filter id="filter1_i_0_108" x="253" y="169.256" width="11.6174" height="19.4484" filterUnits="userSpaceOnUse" color-interpolation-filters="sRGB">
<feFlood flood-opacity="0" result="BackgroundImageFix"/>
<feBlend mode="normal" in="SourceGraphic" in2="BackgroundImageFix" result="shape"/>
<feColorMatrix in="SourceAlpha" type="matrix" values="0 0 0 0 0 0 0 0 0 0 0 0 0 0 0 0 0 0 127 0" result="hardAlpha"/>
<feOffset dy="4"/>
<feGaussianBlur stdDeviation="2"/>
<feComposite in2="hardAlpha" operator="arithmetic" k2="-1" k3="1"/>
<feColorMatrix type="matrix" values="0 0 0 0 0 0 0 0 0 0 0 0 0 0 0 0 0 0 0.25 0"/>
<feBlend mode="normal" in2="shape" result="effect1_innerShadow_0_108"/>
</filter>
<filter id="filter2_i_0_108" x="95" y="221.665" width="11.6174" height="19.4484" filterUnits="userSpaceOnUse" color-interpolation-filters="sRGB">
<feFlood flood-opacity="0" result="BackgroundImageFix"/>
<feBlend mode="normal" in="SourceGraphic" in2="BackgroundImageFix" result="shape"/>
<feColorMatrix in="SourceAlpha" type="matrix" values="0 0 0 0 0 0 0 0 0 0 0 0 0 0 0 0 0 0 127 0" result="hardAlpha"/>
<feOffset dy="4"/>
<feGaussianBlur stdDeviation="2"/>
<feComposite in2="hardAlpha" operator="arithmetic" k2="-1" k3="1"/>
<feColorMatrix type="matrix" values="0 0 0 0 0 0 0 0 0 0 0 0 0 0 0 0 0 0 0.25 0"/>
<feBlend mode="normal" in2="shape" result="effect1_innerShadow_0_108"/>
</filter>
<filter id="filter3_i_0_108" x="27" y="323.401" width="11.6174" height="19.4482" filterUnits="userSpaceOnUse" color-interpolation-filters="sRGB">
<feFlood flood-opacity="0" result="BackgroundImageFix"/>
<feBlend mode="normal" in="SourceGraphic" in2="BackgroundImageFix" result="shape"/>
<feColorMatrix in="SourceAlpha" type="matrix" values="0 0 0 0 0 0 0 0 0 0 0 0 0 0 0 0 0 0 127 0" result="hardAlpha"/>
<feOffset dy="4"/>
<feGaussianBlur stdDeviation="2"/>
<feComposite in2="hardAlpha" operator="arithmetic" k2="-1" k3="1"/>
<feColorMatrix type="matrix" values="0 0 0 0 0 0 0 0 0 0 0 0 0 0 0 0 0 0 0.25 0"/>
<feBlend mode="normal" in2="shape" result="effect1_innerShadow_0_108"/>
</filter>
<filter id="filter4_i_0_108" x="241.156" y="386.038" width="11.6174" height="19.4484" filterUnits="userSpaceOnUse" color-interpolation-filters="sRGB">
<feFlood flood-opacity="0" result="BackgroundImageFix"/>
<feBlend mode="normal" in="SourceGraphic" in2="BackgroundImageFix" result="shape"/>
<feColorMatrix in="SourceAlpha" type="matrix" values="0 0 0 0 0 0 0 0 0 0 0 0 0 0 0 0 0 0 127 0" result="hardAlpha"/>
<feOffset dy="4"/>
<feGaussianBlur stdDeviation="2"/>
<feComposite in2="hardAlpha" operator="arithmetic" k2="-1" k3="1"/>
<feColorMatrix type="matrix" values="0 0 0 0 0 0 0 0 0 0 0 0 0 0 0 0 0 0 0.25 0"/>
<feBlend mode="normal" in2="shape" result="effect1_innerShadow_0_108"/>
</filter>
</defs>
</svg>
