<svg width="31" height="33" viewBox="0 0 31 33" fill="none" xmlns="http://www.w3.org/2000/svg">
<g clip-path="url(#clip0_0_23)">
<path d="M11.1856 6.13455C11.6872 6.13455 12.0939 5.70168 12.0939 5.16775V3.22094C12.0939 2.68701 11.6872 2.25415 11.1856 2.25415C10.6841 2.25415 10.2775 2.68701 10.2775 3.22094V5.16775C10.2775 5.70168 10.6841 6.13455 11.1856 6.13455Z" fill="black"/>
<path d="M2.94628 9.67351L1.36243 8.70009C0.928003 8.43294 0.372549 8.5915 0.121825 9.05396C-0.12896 9.51634 0.0198638 10.1077 0.454227 10.3746L2.03807 11.348C2.47146 11.6145 3.02735 11.4577 3.27868 10.9941C3.52947 10.5317 3.38064 9.94043 2.94628 9.67351Z" fill="black"/>
<path d="M2.03807 20.3595L0.454227 21.3328C0.0198638 21.5998 -0.12896 22.1911 0.121825 22.6535C0.373881 23.1182 0.930122 23.2732 1.36243 23.0073L2.94628 22.0339C3.38064 21.7669 3.52947 21.1757 3.27868 20.7133C3.02789 20.251 2.47256 20.0924 2.03807 20.3595Z" fill="black"/>
<path d="M20.3334 11.348L21.9172 10.3746C22.3516 10.1076 22.5004 9.51634 22.2496 9.05396C21.9988 8.5915 21.4435 8.43294 21.009 8.70009L19.4252 9.67351C18.9908 9.94051 18.842 10.5317 19.0927 10.9941C19.3449 11.4589 19.9011 11.6138 20.3334 11.348Z" fill="black"/>
<path d="M24.1526 17.2262C23.1129 14.4914 20.591 12.6831 17.8166 12.6959C16.6798 10.0012 14.1356 8.11938 11.1856 8.11938C7.17934 8.11938 3.92004 11.589 3.92004 15.8537C3.92004 18.5898 5.26225 20.9977 7.28189 22.373C5.12844 25.9945 7.57696 30.7424 11.6056 30.7424C25.8954 30.7265 25.1134 30.7813 25.3623 30.6991C28.5366 30.3179 31.0001 27.452 31.0001 23.9749C31.0001 20.0041 27.8127 16.9211 24.1526 17.2262ZM5.73645 15.8538C5.73645 12.6553 8.18096 10.053 11.1857 10.053C13.2119 10.053 14.9823 11.237 15.9211 12.9887C13.0513 13.8839 11.0586 16.6729 11.0266 19.8729C10.1244 19.9783 9.27382 20.3371 8.54121 20.9235C6.86983 19.9317 5.73645 18.0313 5.73645 15.8538ZM25.0188 28.7923C24.6952 28.8202 16.4536 28.804 11.6056 28.8088C8.61085 28.8088 7.15149 24.8573 9.37965 22.6913C10.0485 22.0411 10.9391 21.6952 11.9095 21.7891C12.4949 21.8454 12.972 21.3062 12.8912 20.6922C12.4701 17.4933 14.7971 14.6292 17.8372 14.6292C20.0861 14.6292 22.0683 16.2407 22.6575 18.548C22.7834 19.041 23.248 19.3444 23.7177 19.2412C26.5485 18.618 29.1837 20.9215 29.1837 23.9749C29.1837 26.4728 27.3542 28.5889 25.0188 28.7923Z" fill="black"/>
</g>
<defs>
<clipPath id="clip0_0_23">
<rect width="31" height="33" fill="white"/>
</clipPath>
</defs>
</svg>
